<?xml version="1.0" encoding="utf-8"?>
<svg version="1.1" id="Layer_1" x="0px" y="0px" viewBox="0 0 64 64" enable-background="new 0 0 64 64" xmlns="http://www.w3.org/2000/svg">
  <g>
    <path d="M24,52c-3.3,0-6,2.7-6,6s2.7,6,6,6s6-2.7,6-6S27.3,52,24,52z M24,60c-1.1,0-2-0.9-2-2s0.9-2,2-2s2,0.9,2,2S25.1,60,24,60z"/>
    <path d="M51,52c-3.3,0-6,2.7-6,6s2.7,6,6,6s6-2.7,6-6S54.3,52,51,52z M51,60c-1.1,0-2-0.9-2-2s0.9-2,2-2s2,0.9,2,2S52.1,60,51,60z"/>
    <path d="M 19 42 L 58.8 42 L 63.3 8 L 13.5 8 L 11.6 0 L 0 0 L 0 4 L 8.4 4 L 16.6 38.5 C 14.5 39.4 13 41.5 13 44 C 13 47.3 15.7 50 19 50 L 58 50 L 58 46 L 19 46 C 17.9 46 17 45.1 17 44 C 17 42.9 17.9 42 19 42 Z"/>
  </g>
</svg>